<svg preserveAspectRatio="xMidYMid meet" data-bbox="0.86 5.066 129.1 32.778" viewBox="0.86 5.066 129.1 32.778" height="50" width="134" xmlns="http://www.w3.org/2000/svg" data-type="color" role="presentation" aria-hidden="true" aria-label="">
    <g>
        <path d="M22.898 37.45h-6.503a14 14 0 0 1-.32-3.02q-.804 1.962-2.41 2.707c-1.044.468-2.235.707-3.575.707q-2.97 0-4.817-1.57-1.81-1.57-1.808-4.235c0-1.309.348-2.496 1.043-3.57q1.083-1.646 3.375-2.547c1.55-.602 4.203-1.047 7.949-1.332v-.746q0-2.43-2.531-2.43-2.689-.002-3.051 2.82l-6.184-.507q.562-3.923 3.375-5.372 2.808-1.493 6.301-1.492 2.05.001 3.938.512 1.886.47 2.968 1.488 1.125.981 1.489 2.078.398 1.095.398 3.727v8.781q0 2.513.363 4m-7.066-9.293q-5.34.59-5.34 3.254-.002.902.524 1.492.52.586 1.523.586c.91 0 1.688-.363 2.328-1.097q.966-1.136.965-2.864z" fill="#fff" data-color="1"></path>
        <path d="m43.125 17.258-6.906 20.191H31l-6.906-20.191h6.824l3.496 12.312 3.613-12.312z" fill="#fff" data-color="1"></path>
        <path d="M63.379 28.746H50.53c.028-.027.04.145.04.508q0 1.92 1.003 2.863 1.007.903 2.371.903 2.608-.001 3.211-3.02l6.102.43q-2.367 7.413-9.516 7.414-3.088-.001-5.258-1.18-2.167-1.213-3.574-3.527-1.364-2.315-1.363-5.567c0-3.164.933-5.738 2.808-7.726q2.814-2.982 7.227-2.98 4.019 0 6.906 2.784c1.93 1.856 2.89 4.887 2.89 9.098M50.57 24.63h6.227q-.283-3.216-2.973-3.215-2.93-.001-3.254 3.215" fill="#fff" data-color="1"></path>
        <path d="M84.941 37.45h-6.504a14 14 0 0 1-.32-3.02q-.804 1.962-2.41 2.707c-1.043.468-2.234.707-3.57.707q-2.976 0-4.82-1.57-1.805-1.57-1.805-4.235a6.4 6.4 0 0 1 1.043-3.57q1.084-1.646 3.37-2.547 2.332-.904 7.95-1.332v-.746q-.001-2.43-2.527-2.43c-1.793 0-2.813.938-3.051 2.82l-6.184-.507c.375-2.614 1.496-4.407 3.371-5.372q2.813-1.493 6.305-1.492 2.046.001 3.934.512 1.887.47 2.972 1.488 1.123.981 1.485 2.078.404 1.095.402 3.727v8.781q0 2.513.36 4m-7.067-9.293q-5.34.59-5.34 3.254.001.902.524 1.492.52.586 1.523.586c.91 0 1.688-.363 2.332-1.097q.96-1.136.961-2.864z" fill="#fff" data-color="1"></path>
        <path d="M106.797 10.434v27.015h-6.266v-3.02c-.91 2.274-2.61 3.415-5.097 3.415q-3.534-.002-5.543-2.746-1.964-2.747-1.965-7.528 0-4.945 1.965-7.804 2.009-2.902 5.824-2.903 3.45 0 4.535 2.473v-8.902zm-6.547 15.37q.001-4.195-2.488-4.195-2.93-.002-2.93 6.078 0 5.333 2.73 5.333 1.043 0 1.844-.903.844-.9.844-2.668z" fill="#fff" data-color="1"></path>
        <path d="M129.96 28.746h-12.847c.028-.027.043.145.043.508 0 1.281.332 2.234 1.004 2.863a3.42 3.42 0 0 0 2.367.903c1.739 0 2.813-1.008 3.211-3.02l6.106.43q-2.373 7.413-9.516 7.414-3.093-.001-5.262-1.18-2.167-1.213-3.574-3.527-1.364-2.315-1.363-5.567 0-4.745 2.808-7.726 2.814-2.982 7.231-2.98 4.014 0 6.902 2.784c1.93 1.856 2.89 4.887 2.89 9.098m-12.804-4.117h6.223q-.283-3.216-2.973-3.215-2.932-.001-3.25 3.215" fill="#fff" data-color="1"></path>
        <path d="M.86 5.2h11.867l7.976 8.152H8.84z" fill="#fa7300" data-color="2"></path>
        <path d="M14.832 5.066h11.867l7.977 8.153H22.812z" fill="#fa7300" data-color="2"></path>
    </g>
</svg>